<?xml version="1.0" encoding="UTF-8" standalone="no"?>
<svg
   id="visual"
   viewBox="0 0 960 180.89474"
   width="960"
   height="180.89474"
   version="1.1"
   xmlns="http://www.w3.org/2000/svg"
   xmlns:svg="http://www.w3.org/2000/svg">
  <defs
     id="defs5" />
  <path
     d="M 0,41.227175 137,22.717015 274,50.482255 411,3.3654852 549,38.703065 686,59.737335 823,-4.8276766e-6 960,32.813475 V 180.89473 H 823 686 549 411 274 137 0 Z"
     fill="#e1b534"
     id="path1"
     style="stroke-width:0.917264" />
  <path
     d="m 0,84.823525 137,-24.61329 137,27.7892 137,-55.57839 138,26.20124 137,12.70363 137,-11.11568 137,16.67352 V 180.89473 H 823 686 549 411 274 137 0 Z"
     fill="#b88836"
     id="path2"
     style="stroke-width:0.891054" />
  <path
     d="m 0,109.48996 137,-43.352895 137,38.252555 137,-38.252555 138,-3.40022 137,30.60204 137,-24.65165 137,43.352895 v 68.8546 H 823 686 549 411 274 137 0 Z"
     fill="#896133"
     id="path3"
     style="stroke-width:0.921985" />
  <path
     d="m 0,101.89473 137,13 137,9 137,-15 138,-8 137,-4.999995 137,25.999995 137,-17 v 76 H 823 686 549 411 274 137 0 Z"
     fill="#573f2c"
     id="path4" />
  <path
     d="m 0,114.89473 137,18 137,-2 137,-12 138,15 137,13 137,-4 137,-20 v 58 H 823 686 549 411 274 137 0 Z"
     fill="#232120"
     id="path5" />
</svg>
