<svg id="visual" viewBox="0 0 900 300" width="900" height="300" xmlns="http://www.w3.org/2000/svg" xmlns:xlink="http://www.w3.org/1999/xlink" version="1.1"><path d="M0 211L129 200L257 211L386 181L514 209L643 210L771 177L900 175L900 301L771 301L643 301L514 301L386 301L257 301L129 301L0 301Z" fill="#e1b534"></path><path d="M0 214L129 203L257 217L386 199L514 210L643 229L771 198L900 215L900 301L771 301L643 301L514 301L386 301L257 301L129 301L0 301Z" fill="#b88836"></path><path d="M0 220L129 218L257 221L386 254L514 244L643 253L771 242L900 248L900 301L771 301L643 301L514 301L386 301L257 301L129 301L0 301Z" fill="#896133"></path><path d="M0 255L129 263L257 251L386 256L514 258L643 254L771 240L900 258L900 301L771 301L643 301L514 301L386 301L257 301L129 301L0 301Z" fill="#573f2c"></path><path d="M0 276L129 281L257 269L386 282L514 278L643 267L771 262L900 279L900 301L771 301L643 301L514 301L386 301L257 301L129 301L0 301Z" fill="#232120"></path></svg>