<svg id="visual" viewBox="0 0 900 200" width="900" height="200" xmlns="http://www.w3.org/2000/svg" xmlns:xlink="http://www.w3.org/1999/xlink" version="1.1"><path d="M0 140L129 133L257 140L386 120L514 139L643 140L771 118L900 117L900 201L771 201L643 201L514 201L386 201L257 201L129 201L0 201Z" fill="#e1b534"></path><path d="M0 142L129 135L257 145L386 133L514 140L643 152L771 132L900 143L900 201L771 201L643 201L514 201L386 201L257 201L129 201L0 201Z" fill="#b88836"></path><path d="M0 146L129 145L257 147L386 169L514 163L643 168L771 161L900 165L900 201L771 201L643 201L514 201L386 201L257 201L129 201L0 201Z" fill="#896133"></path><path d="M0 170L129 175L257 167L386 170L514 172L643 169L771 160L900 171L900 201L771 201L643 201L514 201L386 201L257 201L129 201L0 201Z" fill="#573f2c"></path><path d="M0 183L129 187L257 179L386 188L514 185L643 178L771 175L900 186L900 201L771 201L643 201L514 201L386 201L257 201L129 201L0 201Z" fill="#232120"></path></svg>